<?xml version="1.0" encoding="UTF-8"?>
<!DOCTYPE svg PUBLIC "-//W3C//DTD SVG 1.1//EN" "http://www.w3.org/Graphics/SVG/1.1/DTD/svg11.dtd">
<svg version="1.1" id="Layer_1" xmlns="http://www.w3.org/2000/svg" xmlns:xlink="http://www.w3.org/1999/xlink" x="0px" y="0px" viewBox="416 -616 1792 1792" enable-background="new 416 -616 1792 1792" xml:space="preserve">
<path fill="#3B5998" d="M1792-488c79.3,0,147.2,28.2,203.5,84.5c56.3,56.3,84.5,124.2,84.5,203.5v960c0,79.3-28.2,147.2-84.5,203.5  c-56.3,56.3-124.2,84.5-203.5,84.5h-188V453h199l30-232h-229V73c0-37.3,7.8-65.3,23.5-84s46.2-28,91.5-28l122-1v-207  c-42-6-101.3-9-178-9c-90.7,0-163.2,26.7-217.5,80c-54.3,53.3-81.5,128.7-81.5,226v171h-200v232h200v595H832  c-79.3,0-147.2-28.2-203.5-84.5C572.2,907.2,544,839.3,544,760v-960c0-79.3,28.2-147.2,84.5-203.5C684.8-459.8,752.7-488,832-488  H1792z"/>
</svg>