<?xml version="1.0" encoding="UTF-8" standalone="no"?>
<svg xmlns:dc="http://purl.org/dc/elements/1.1/" xmlns:cc="http://creativecommons.org/ns#" xmlns:rdf="http://www.w3.org/1999/02/22-rdf-syntax-ns#" xmlns:svg="http://www.w3.org/2000/svg" xmlns="http://www.w3.org/2000/svg" xmlns:xlink="http://www.w3.org/1999/xlink" id="svg5372" version="1.1" viewBox="0 0 132.29167 114.08231" height="114.08231mm" width="132.29167mm">
  <defs id="defs5366">
    <linearGradient id="linearGradient6037">
      <stop id="stop6033" offset="0" style="stop-color:#162d50;stop-opacity:1" />
      <stop id="stop6035" offset="1" style="stop-color:#87aade;stop-opacity:1" />
    </linearGradient>
    <linearGradient id="chairs">
      <stop id="stop5991" offset="0" style="stop-color:#0f0f0f;stop-opacity:1" />
      <stop style="stop-color:#545454;stop-opacity:0.98823529;" offset="0.79005843" id="stop5999" />
      <stop id="stop5993" offset="1" style="stop-color:#999999;stop-opacity:0.97487438" />
    </linearGradient>
    <radialGradient gradientUnits="userSpaceOnUse" gradientTransform="matrix(1.6004556,-7.6292429e-4,4.8926863e-4,1.2383696,-33.676698,-52.424885)" r="17.659245" fy="196.80438" fx="56.236557" cy="196.80438" cx="56.236557" id="radialGradient5997" xlink:href="#chairs" />
    <radialGradient r="17.659245" fy="196.80438" fx="56.236557" cy="196.80438" cx="56.236557" gradientTransform="matrix(1.6004556,-7.6292429e-4,4.8926863e-4,1.2383696,6.0237454,-52.458204)" gradientUnits="userSpaceOnUse" id="radialGradient6003" xlink:href="#chairs" />
    <radialGradient r="17.659245" fy="196.80438" fx="56.236557" cy="196.80438" cx="56.236557" gradientTransform="matrix(1.6004556,-7.6292429e-4,4.8926863e-4,1.2383696,44.782119,-52.672339)" gradientUnits="userSpaceOnUse" id="radialGradient6007" xlink:href="#chairs" />
    <radialGradient gradientUnits="userSpaceOnUse" gradientTransform="matrix(1,0,0,0.86200002,0,18.869855)" r="66.145836" fy="136.73808" fx="94.494049" cy="136.73808" cx="94.494049" id="radialGradient6039" xlink:href="#linearGradient6037" />
    <linearGradient id="blue_circle">
      <stop id="stop3331" offset="0" style="stop-color:#7ebfe5;stop-opacity:1;" />
      <stop id="stop3333" offset="1" style="stop-color:#7ebfe5;stop-opacity:0.627451" />
    </linearGradient>
    <linearGradient id="green_circle">
      <stop style="stop-color:#a3c856;stop-opacity:0.627451" offset="0" id="stop3323" />
      <stop style="stop-color:#a3c856;stop-opacity:1;" offset="1" id="stop3321" />
    </linearGradient>
    <linearGradient id="orange_circle">
      <stop style="stop-color:#f46f22;stop-opacity:0.62814069" offset="0" id="stop3313" />
      <stop style="stop-color:#f46f22;stop-opacity:1;" offset="1" id="stop3311" />
    </linearGradient>
    <marker style="overflow:visible" id="Arrow1Lend" refX="0" refY="0" orient="auto">
      <path transform="matrix(-0.8,0,0,-0.8,-10,0)" style="fill:#7ebfe5;fill-opacity:1;fill-rule:evenodd;stroke:#7ebfe5;stroke-width:1.00000003pt;stroke-opacity:1" d="M 0,0 5,-5 -12.5,0 5,5 Z" id="path866" />
    </marker>
    <marker style="overflow:visible" id="Arrow1Lend-9" refX="0" refY="0" orient="auto">
      <path transform="matrix(-0.8,0,0,-0.8,-10,0)" style="fill:#f46f22;fill-opacity:1;fill-rule:evenodd;stroke:#f46f22;stroke-width:1.00000003pt;stroke-opacity:1" d="M 0,0 5,-5 -12.5,0 5,5 Z" id="path866-5" />
    </marker>
    <marker style="overflow:visible" id="Arrow1Lend-4" refX="0" refY="0" orient="auto">
      <path transform="matrix(-0.8,0,0,-0.8,-10,0)" style="fill:#a3c856;fill-opacity:0.99607843;fill-rule:evenodd;stroke:#a3c856;stroke-width:1.00000003pt;stroke-opacity:0.99607843" d="M 0,0 5,-5 -12.5,0 5,5 Z" id="path866-3" />
    </marker>
    <radialGradient gradientUnits="userSpaceOnUse" r="6.0346608" fy="270.31607" fx="21.123243" cy="270.31607" cx="21.123243" id="radialGradient3317" xlink:href="#orange_circle" />
    <radialGradient gradientUnits="userSpaceOnUse" r="6.0346608" fy="270.31607" fx="4.397254" cy="270.31607" cx="4.397254" id="radialGradient3327" xlink:href="#green_circle" />
    <radialGradient spreadMethod="pad" gradientUnits="userSpaceOnUse" r="6.0346608" fy="284.00095" fx="12.760248" cy="284.00095" cx="12.760248" id="radialGradient3337" xlink:href="#blue_circle" />
  </defs>
  <metadata id="metadata5369">
    <rdf:RDF>
      <cc:Work rdf:about="">
        <dc:format>image/svg+xml</dc:format>
        <dc:type rdf:resource="http://purl.org/dc/dcmitype/StillImage" />
        <dc:title></dc:title>
      </cc:Work>
    </rdf:RDF>
  </metadata>
  <g transform="translate(-28.348211,-79.720383)" style="display:inline" id="layer11">
    <rect y="79.720383" x="28.348211" height="114.03542" width="132.29167" id="rect6009" style="display:inline;opacity:1;fill:url(#radialGradient6039);fill-opacity:1;fill-rule:evenodd;stroke:none;stroke-width:1.12844789;stroke-linejoin:bevel;stroke-miterlimit:4;stroke-dasharray:none;stroke-opacity:1;paint-order:fill markers stroke" />
  </g>
  <g transform="translate(-28.348211,-79.720383)" style="display:inline" id="layer9">
    <rect y="96.569962" x="49.036835" height="53.105392" width="105.78252" id="rect5986" style="opacity:1;fill:#ffffff;fill-opacity:1;fill-rule:evenodd;stroke:#999999;stroke-width:1.12844789;stroke-linejoin:bevel;stroke-miterlimit:4;stroke-dasharray:none;stroke-opacity:1;paint-order:fill markers stroke" />
    <g transform="matrix(0.3024678,0,0,0.3024678,49.99627,15.516512)" id="layer1-1">
      <circle r="8.4666672" style="fill:#7ebfe5;fill-opacity:1;stroke-width:0.2846972" cy="286.41666" cx="15.08125" id="path26" />
      <ellipse ry="5.953125" rx="6.6145835" cy="280.46353" cx="8.2020836" id="path833" style="fill:#a3c856;fill-opacity:0.99607843;stroke-width:0.38598934" />
      <ellipse ry="2.3812499" rx="2.6458333" cy="274.51041" cx="17.991667" id="path5083" style="fill:#f46f22;fill-opacity:1;stroke-width:0.20632599" />
      <path id="path26-9" d="m 14.231638,278.0048 a 8.4666672,8.4666672 0 0 0 -7.5928185,8.23361 6.6145834,5.953125 0 0 0 1.5787149,0.17983 6.6145834,5.953125 0 0 0 6.6145836,-5.95313 6.6145834,5.953125 0 0 0 -0.60048,-2.46031 z" style="fill:#83b850;fill-opacity:1;stroke-width:0.2846972" />
    </g>
    <g style="opacity:0.68699999" transform="matrix(0.20551663,0,0,0.20551663,104.72526,98.713965)" id="g6529">
      <g style="display:inline" transform="translate(3.2291681,-4.395912)" id="layer1-6">
        <g id="layer1-7" transform="matrix(6.5765919,0,0,6.5765919,20.768555,-1720.4459)">
          <circle r="6.0346608" id="path26-3" cx="12.760248" cy="284.00095" style="fill:url(#radialGradient3337);fill-opacity:1;stroke-width:0.20291939" />
          <circle r="6.0346608" style="fill:url(#radialGradient3327);fill-opacity:1;stroke-width:0.37119696" id="path833-4" cx="4.397254" cy="270.31607" />
          <circle r="6.0346608" style="fill:url(#radialGradient3317);fill-opacity:1;stroke-width:0.49604729" id="path5083-4" cx="21.123243" cy="270.31607" />
          <path id="path859" d="m 10.361918,270.43728 c 4.470007,0.0831 4.470007,0.0831 4.470007,0.0831" style="fill:none;stroke:#7ebfe5;stroke-width:0.16525885;stroke-linecap:butt;stroke-linejoin:miter;stroke-miterlimit:4;stroke-dasharray:none;stroke-opacity:1;marker-end:url(#Arrow1Lend)" />
          <path id="path859-8" d="M 8.8040092,279.4479 C 5.9630588,276.3574 5.9630588,276.3574 5.9630588,276.3574" style="fill:none;stroke:#f46f22;stroke-width:0.16092429;stroke-linecap:butt;stroke-linejoin:miter;stroke-miterlimit:4;stroke-dasharray:none;stroke-opacity:1;marker-end:url(#Arrow1Lend-9)" />
          <path id="path859-0" d="m 19.71278,276.19279 c -2.666873,3.24192 -2.666873,3.24192 -2.666873,3.24192" style="fill:none;stroke:#a3c856;stroke-width:0.16092429;stroke-linecap:butt;stroke-linejoin:miter;stroke-miterlimit:4;stroke-dasharray:none;stroke-opacity:0.99607843;marker-end:url(#Arrow1Lend-4)" />
        </g>
      </g>
      <g transform="translate(3.2291681,-4.395912)" style="display:inline" id="layer2" />
    </g>
    <path d="m 125.46734,141.33877 c 1.08417,0.37196 2.23987,0.46024 3.37742,0.49334 0.27667,-0.0188 0.55502,-0.0207 0.83003,-0.0564 0.56722,-0.0736 1.30441,-0.24856 1.83698,-0.44441 0.33485,-0.12313 1.265,-0.64491 0.97997,-0.43036 -0.4325,0.32556 -0.9298,0.97571 -1.43023,0.7693 -0.45405,-0.18728 0.79369,-0.57878 1.19053,-0.86816 2.40304,-1.96338 4.45552,-4.30432 6.49961,-6.62698 0.71057,-0.82842 1.44996,-1.63764 2.08032,-2.53034 0,0 2.88278,-1.24183 2.88278,-1.24183 v 0 c -0.24757,0.31041 -0.11862,0.14089 -0.38318,0.51136 -0.59377,0.75132 -1.2999,1.41377 -1.91966,2.14237 -2.11132,2.29955 -4.18299,4.65239 -6.54245,6.70452 -2.48602,1.91872 -5.23043,3.76892 -8.45839,3.82756 -1.19756,-0.0395 -2.38914,-0.15995 -3.55188,-0.4638 0,0 2.60815,-1.7862 2.60815,-1.7862 z" id="path6565" style="opacity:1;fill:#f4752b;fill-opacity:1;fill-rule:evenodd;stroke:none;stroke-width:1.12844789;stroke-linejoin:bevel;stroke-miterlimit:4;stroke-dasharray:none;stroke-opacity:1;paint-order:fill markers stroke" />
    <path id="path6613" style="fill:none;stroke:#000000;stroke-width:0.079375px" d="m 71.994505,102.58421 v 15.875 m 2.645833,-15.875 v 15.875 m 2.645833,-15.875 v 15.875 m 2.645834,-15.875 v 15.875 m 2.645833,-15.875 v 15.875 m 2.645833,-15.875 v 15.875 m -13.229166,-15.875 h 13.229167 m -13.229167,1.05834 h 13.229167 m -13.229167,1.05833 h 13.229167 m -13.229167,1.05833 h 13.229167 m -13.229167,1.05834 h 13.229167 m -13.229167,1.05833 h 13.229167 m -13.229167,1.05833 h 13.229167 m -13.229167,1.05834 h 13.229167 m -13.229167,1.05833 h 13.229167 m -13.229167,1.05833 h 13.229167 m -13.229167,1.05834 h 13.229167 m -13.229167,1.05833 h 13.229167 m -13.229167,1.05833 h 13.229167 m -13.229167,1.05834 h 13.229167 m -13.229167,1.05833 h 13.229167" />
    <path d="m 91.722222,114.3199 v 15.875 m 2.645833,-15.875 v 15.875 m 2.645833,-15.875 v 15.875 m 2.645834,-15.875 v 15.875 m 2.645838,-15.875 v 15.875 m 2.64583,-15.875 v 15.875 m -13.229168,-15.875 h 13.229168 m -13.229168,1.05834 h 13.229168 m -13.229168,1.05833 h 13.229168 m -13.229168,1.05833 h 13.229168 m -13.229168,1.05834 h 13.229168 m -13.229168,1.05833 h 13.229168 m -13.229168,1.05833 h 13.229168 m -13.229168,1.05834 h 13.229168 m -13.229168,1.05833 h 13.229168 m -13.229168,1.05833 h 13.229168 m -13.229168,1.05834 h 13.229168 m -13.229168,1.05833 h 13.229168 m -13.229168,1.05833 h 13.229168 m -13.229168,1.05834 h 13.229168 m -13.229168,1.05833 h 13.229168" style="fill:#b3b3b3;stroke:#000000;stroke-width:0.079375px" id="path6615" />
    <path id="path6617" style="fill:#87aade;fill-opacity:1;stroke:#000000;stroke-width:0.079375px" d="m 61.97625,125.87918 v 15.875 m 2.645833,-15.875 v 15.875 m 2.645833,-15.875 v 15.875 m 2.645834,-15.875 v 15.875 m 2.645838,-15.875 v 15.875 m 2.64583,-15.875 v 15.875 m -13.229168,-15.875 h 13.229168 m -13.229168,1.05834 h 13.229168 m -13.229168,1.05833 h 13.229168 m -13.229168,1.05833 h 13.229168 m -13.229168,1.05834 h 13.229168 m -13.229168,1.05833 h 13.229168 m -13.229168,1.05833 h 13.229168 m -13.229168,1.05834 h 13.229168 m -13.229168,1.05833 h 13.229168 m -13.229168,1.05833 h 13.229168 m -13.229168,1.05834 h 13.229168 m -13.229168,1.05833 h 13.229168 m -13.229168,1.05833 h 13.229168 m -13.229168,1.05834 h 13.229168 m -13.229168,1.05833 h 13.229168" />
    <path id="path6619" d="m 97.064813,122.2553 v -0.47329 h 1.271992 1.271992 v 0.47329 0.4733 h -1.271992 -1.271992 z" style="opacity:1;fill:#87aade;fill-opacity:1;fill-rule:evenodd;stroke:none;stroke-width:0.12616383;stroke-linejoin:bevel;stroke-miterlimit:4;stroke-dasharray:none;stroke-opacity:1;paint-order:fill markers stroke" />
    <path id="path6621" d="m 99.727122,120.14025 v -0.48809 h 1.257198 1.2572 v 0.48809 0.48809 h -1.2572 -1.257198 z" style="opacity:1;fill:#87aade;fill-opacity:1;fill-rule:evenodd;stroke:none;stroke-width:0.12616383;stroke-linejoin:bevel;stroke-miterlimit:4;stroke-dasharray:none;stroke-opacity:1;paint-order:fill markers stroke" />
    <path id="path6623" d="m 94.432087,125.42049 v -0.4733 h 1.2572 1.257202 v 0.4733 0.4733 h -1.257202 -1.2572 z" style="opacity:1;fill:#87aade;fill-opacity:1;fill-rule:evenodd;stroke:none;stroke-width:0.12616383;stroke-linejoin:bevel;stroke-miterlimit:4;stroke-dasharray:none;stroke-opacity:1;paint-order:fill markers stroke" />
    <path id="path6629" d="m 74.704368,106.2895 v -0.4733 h 1.257202 1.257199 v 0.4733 0.4733 H 75.96157 74.704368 Z" style="opacity:1;fill:#87aade;fill-opacity:1;fill-rule:evenodd;stroke:none;stroke-width:0.12616383;stroke-linejoin:bevel;stroke-miterlimit:4;stroke-dasharray:none;stroke-opacity:1;paint-order:fill markers stroke" />
    <path id="path6631" d="m 77.337096,109.45469 v -0.4733 h 1.27199 1.271992 v 0.4733 0.4733 h -1.271992 -1.27199 z" style="opacity:1;fill:#87aade;fill-opacity:1;fill-rule:evenodd;stroke:none;stroke-width:0.12616383;stroke-linejoin:bevel;stroke-miterlimit:4;stroke-dasharray:none;stroke-opacity:1;paint-order:fill markers stroke" />
    <path id="path6633" d="m 69.972742,138.0514 v -0.48809 h 1.271992 1.271993 v 0.48809 0.48809 h -1.271993 -1.271992 z" style="opacity:1;fill:#87aade;fill-opacity:1;fill-rule:evenodd;stroke:none;stroke-width:0.12616383;stroke-linejoin:bevel;stroke-miterlimit:4;stroke-dasharray:none;stroke-opacity:1;paint-order:fill markers stroke" />
    <path id="path6635" d="m 67.310436,135.93634 v -0.47329 h 1.271989 1.271993 v 0.47329 0.4733 h -1.271993 -1.271989 z" style="opacity:1;fill:#87aade;fill-opacity:1;fill-rule:evenodd;stroke:none;stroke-width:0.12616383;stroke-linejoin:bevel;stroke-miterlimit:4;stroke-dasharray:none;stroke-opacity:1;paint-order:fill markers stroke" />
    <path id="path6637" d="m 67.310436,134.87142 v -0.4733 h 1.271989 1.271993 v 0.4733 0.4733 h -1.271993 -1.271989 z" style="opacity:1;fill:#87aade;fill-opacity:1;fill-rule:evenodd;stroke:none;stroke-width:0.12616383;stroke-linejoin:bevel;stroke-miterlimit:4;stroke-dasharray:none;stroke-opacity:1;paint-order:fill markers stroke" />
    <path id="path6639" d="m 69.972742,130.64047 v -0.47413 l 0.406744,0.008 0.406741,0.008 0.03477,0.35497 c 0.01913,0.19523 0.03576,0.40489 0.03697,0.4659 l 0.0021,0.11093 H 70.41635 69.972631 Z" style="opacity:1;fill:#87aade;fill-opacity:1;fill-rule:evenodd;stroke:none;stroke-width:0.12616383;stroke-linejoin:bevel;stroke-miterlimit:4;stroke-dasharray:none;stroke-opacity:1;paint-order:fill markers stroke" />
    <path id="path6643" d="m 91.769778,114.86 v -0.4733 h 1.271992 1.27199 v 0.4733 0.4733 h -1.27199 -1.271992 z" style="opacity:0.68699999;fill:#b3b3b3;fill-opacity:1;fill-rule:evenodd;stroke:none;stroke-width:0.12616383;stroke-linejoin:bevel;stroke-miterlimit:4;stroke-dasharray:none;stroke-opacity:1;paint-order:fill markers stroke" />
    <path id="path6645" d="m 94.432087,114.86 v -0.4733 h 1.2572 1.257202 v 0.4733 0.4733 h -1.257202 -1.2572 z" style="opacity:0.68699999;fill:#b3b3b3;fill-opacity:1;fill-rule:evenodd;stroke:none;stroke-width:0.12616383;stroke-linejoin:bevel;stroke-miterlimit:4;stroke-dasharray:none;stroke-opacity:1;paint-order:fill markers stroke" />
    <path id="path6647" d="m 97.064813,114.86 v -0.4733 h 1.271992 1.271992 v 0.4733 0.4733 h -1.271992 -1.271992 z" style="opacity:0.68699999;fill:#b3b3b3;fill-opacity:1;fill-rule:evenodd;stroke:none;stroke-width:0.12616383;stroke-linejoin:bevel;stroke-miterlimit:4;stroke-dasharray:none;stroke-opacity:1;paint-order:fill markers stroke" />
    <path id="path6649" d="m 99.727122,114.86 v -0.4733 h 1.257198 1.2572 v 0.4733 0.4733 h -1.2572 -1.257198 z" style="opacity:0.68699999;fill:#b3b3b3;fill-opacity:1;fill-rule:evenodd;stroke:none;stroke-width:0.12616383;stroke-linejoin:bevel;stroke-miterlimit:4;stroke-dasharray:none;stroke-opacity:1;paint-order:fill markers stroke" />
    <path id="path6651" d="m 102.35985,114.86 v -0.4733 h 1.27199 1.27199 v 0.4733 0.4733 h -1.27199 -1.27199 z" style="opacity:0.68699999;fill:#b3b3b3;fill-opacity:1;fill-rule:evenodd;stroke:none;stroke-width:0.12616383;stroke-linejoin:bevel;stroke-miterlimit:4;stroke-dasharray:none;stroke-opacity:1;paint-order:fill markers stroke" />
    <path id="path6653" d="m 64.715611,126.44297 v -0.44925 h 1.225233 1.225232 v 0.44925 0.44925 h -1.225232 -1.225233 z" style="opacity:0.68699999;fill:#333333;fill-opacity:1;fill-rule:evenodd;stroke:none;stroke-width:0.34837416;stroke-linejoin:bevel;stroke-miterlimit:4;stroke-dasharray:none;stroke-opacity:1;paint-order:fill markers stroke" />
    <path id="path6655" d="m 67.329441,126.44297 v -0.44925 h 1.266071 1.266073 v 0.44925 0.44925 h -1.266073 -1.266071 z" style="opacity:0.68699999;fill:#333333;fill-opacity:1;fill-rule:evenodd;stroke:none;stroke-width:0.34837416;stroke-linejoin:bevel;stroke-miterlimit:4;stroke-dasharray:none;stroke-opacity:1;paint-order:fill markers stroke" />
    <path id="path6657" d="m 70.02495,126.44297 c 0,-0.44472 0.0024,-0.44925 0.245046,-0.44925 0.24257,0 0.245047,0.005 0.245047,0.44925 0,0.44471 -0.0024,0.44925 -0.245047,0.44925 -0.242573,0 -0.245046,-0.005 -0.245046,-0.44925 z" style="opacity:0.68699999;fill:#333333;fill-opacity:1;fill-rule:evenodd;stroke:none;stroke-width:0.34837416;stroke-linejoin:bevel;stroke-miterlimit:4;stroke-dasharray:none;stroke-opacity:1;paint-order:fill markers stroke" />
    <path id="path6659" d="m 62.020103,126.44297 v -0.44925 h 1.266073 1.266071 v 0.44925 0.44925 h -1.266071 -1.266073 z" style="opacity:0.68699999;fill:#333333;fill-opacity:1;fill-rule:evenodd;stroke:none;stroke-width:0.34837416;stroke-linejoin:bevel;stroke-miterlimit:4;stroke-dasharray:none;stroke-opacity:1;paint-order:fill markers stroke" />
    <path id="path6671" d="m 72.067001,103.08189 v -0.44925 h 1.266074 1.266071 v 0.44925 0.44925 h -1.266071 -1.266074 z" style="opacity:0.68699999;fill:#000080;fill-opacity:1;fill-rule:evenodd;stroke:none;stroke-width:0.34837416;stroke-linejoin:bevel;stroke-miterlimit:4;stroke-dasharray:none;stroke-opacity:1;paint-order:fill markers stroke" />
    <path id="path6673" d="m 74.680828,103.08189 v -0.44925 h 1.266073 1.266071 v 0.44925 0.44925 h -1.266071 -1.266073 z" style="opacity:0.68699999;fill:#000080;fill-opacity:1;fill-rule:evenodd;stroke:none;stroke-width:0.34837416;stroke-linejoin:bevel;stroke-miterlimit:4;stroke-dasharray:none;stroke-opacity:1;paint-order:fill markers stroke" />
    <path id="path6675" d="m 77.376337,103.08189 v -0.44925 h 1.225232 1.225232 v 0.44925 0.44925 h -1.225232 -1.225232 z" style="opacity:0.68699999;fill:#000080;fill-opacity:1;fill-rule:evenodd;stroke:none;stroke-width:0.34837416;stroke-linejoin:bevel;stroke-miterlimit:4;stroke-dasharray:none;stroke-opacity:1;paint-order:fill markers stroke" />
    <path id="path6677" d="m 79.990166,103.08189 v -0.44925 h 0.283845 c 0.274844,0 0.282443,0.008 0.239665,0.26546 -0.101754,0.61142 -0.112713,0.63304 -0.320863,0.63304 -0.19118,0 -0.202647,-0.0254 -0.202647,-0.44925 z" style="opacity:0.68699999;fill:#000080;fill-opacity:1;fill-rule:evenodd;stroke:none;stroke-width:0.34837416;stroke-linejoin:bevel;stroke-miterlimit:4;stroke-dasharray:none;stroke-opacity:1;paint-order:fill markers stroke" />
  </g>
  <g transform="translate(-28.348211,-79.720383)" style="display:inline" id="layer7">
    <path id="path6683" d="m 85.90326,114.08173 c 0,0 0.363183,1.18005 0.816242,2.12736 l -6.178068,-1.17383 0.489888,-4.68887 z" style="display:inline;fill:#ffb47a;fill-opacity:0.99607843;stroke:none;stroke-width:0.26458332px;stroke-linecap:butt;stroke-linejoin:miter;stroke-opacity:1" />
    <path id="path5959" d="m 81.03132,110.34639 c 0,0 1.266677,3.2637 4.192352,3.87949 0,0 1.381233,0.87183 1.573156,-0.55466 0,0 0.867486,0.86749 0.53013,1.83136 0,0 2.21691,1.68678 2.988009,8.67486 0.771099,6.98809 0.240968,15.42198 0.867486,16.96418 0,0 -3.566333,1.15665 -5.012143,-0.0964 0,0 0.674711,-2.55425 1.012067,-10.69898 0,0 -3.710914,-12.00023 -5.301305,-14.26534 0,0 -1.349424,-2.93981 -2.457878,-4.04826 0,0 0.5656,-1.0592 1.608126,-1.68625 z" style="fill:#c4c8f5;fill-opacity:0.99497483;stroke:none;stroke-width:0.26458332px;stroke-linecap:butt;stroke-linejoin:miter;stroke-opacity:1" />
    <path id="path5961" d="m 81.688296,122.9726 c 0,0 0.867487,2.84343 2.361491,4.09646 0,0 -0.09639,0.8193 -0.385549,1.30123 0,0 -0.433743,0.38555 -1.783166,-0.0482 0,0 -0.578325,-0.62651 -0.963874,-2.9398 0,0 0.385548,-1.49401 0.771098,-2.40969 z" style="fill:#c4c8f5;fill-opacity:0.99497483;stroke:none;stroke-width:0.26458332px;stroke-linecap:butt;stroke-linejoin:miter;stroke-opacity:1" />
    <path id="path5963" d="m 99.803052,127.45996 0.873558,3.32002 c 0,0 -0.33736,0.62652 -0.819295,0.62652 l -1.445809,-3.8555 z" style="fill:#c4c8f5;fill-opacity:0.99497483;stroke:none;stroke-width:0.26458332px;stroke-linecap:butt;stroke-linejoin:miter;stroke-opacity:1" />
  </g>
  <g transform="translate(-28.348211,-79.720383)" style="display:inline" id="layer8">
    <path id="path5966" d="m 86.122115,114.87606 c 0,0 -0.09639,0.43374 -0.915681,1.59039 0,0 0.385551,0.7711 0.674714,1.15665 0,0 0.867486,0.53013 1.638585,10.699 0,0 0.722905,7.56641 0.674711,10.60261 0,0 0.530131,0.96388 1.156649,1.73497 0,0 0.433743,-0.62651 0.867486,-1.494 0,0 -0.771099,-12.81952 -1.301229,-16.62682 0,0 -0.38555,-3.0362 -1.108455,-4.43382 0,0 -0.337356,-0.53013 -1.060261,-0.96387 0,0 0.04819,0.0482 0.337356,-0.57833 z" style="fill:#1f76f8;fill-opacity:1;stroke:none;stroke-width:0.1063625;stroke-linecap:butt;stroke-linejoin:miter;stroke-miterlimit:4;stroke-dasharray:none;stroke-opacity:1" />
    <path id="path5968" d="m 79.423193,112.03264 c 0,0 3.098093,1.59016 7.759184,18.3136 0,0 0.320865,4.54714 -1.012067,10.69898 0,0 -0.616826,1.04705 5.012143,0.0964 0,0 -0.34761,-10.48895 -1.615167,-19.91199 0,0 0.03553,-3.45119 -2.240328,-5.72705 l 0.111534,-0.43512 c 0,0 4.241733,1.21792 4.28373,3.48578 0,0 1.007937,2.85582 0.881945,10.70933 l 5.807339,-1.71157 1.445809,3.8555 c 0,0 0.309465,0.27414 0.727895,-0.59892 0,0 0.29244,0.97483 0.25044,1.77278 0,0 -3.35979,1.34391 -8.231483,2.47784 0,0 1.530506,13.57737 1.384335,17.67018 l -4.097585,12.53125 c 0,0 1.247233,7.20195 -5.403586,3.40148 0,0 -0.146172,-1.0232 -1.023203,-7.30859 0,0 -4.531327,16.15199 -3.435038,19.95246 l -3.800469,12.42461 -2.850351,0.0731 c 0,0 0.950117,-31.28077 0.584688,-32.81558 0,0 -0.292344,-8.98959 -0.146172,-10.08588 0,0 -3.288867,-1.75406 -4.385156,-2.77726 0,0 4.969843,-12.71695 5.773788,-14.83645 0,0 -3.654296,1.53481 -4.312069,-2.11949 0,0 -0.584688,-5.40836 -0.219258,-8.03945 0,0 -0.511601,-2.99652 -0.292344,-4.38516 0,0 0.511602,-2.11949 1.827149,-2.70417 0,0 2.484921,-1.97332 5.55453,-2.77727 0,0 0.323011,-0.85079 1.659767,-1.22934 z" style="fill:#1a1a1a;stroke:none;stroke-width:0.26458332px;stroke-linecap:butt;stroke-linejoin:miter;stroke-opacity:1" />
    <path id="path5970" d="m 50.988007,164.06393 c 0,0 3.262133,1.59786 9.095851,-1.06759 0,0 0.780038,2.05864 3.416741,2.4981 0,0 5.493131,1.31835 8.679147,4.94381 0,0 1.318352,2.63671 1.318352,3.62547 l -33.727827,19.55555 -2.52684,0.10986 c 0,0 -0.219726,-9.88764 0.878901,-16.25967 0,0 0.659175,-4.83395 9.008735,-11.09612 0,0 3.410509,-0.91959 3.85694,-2.30941 z" style="fill:#d35f8d;stroke:none;stroke-width:0.26458332px;stroke-linecap:butt;stroke-linejoin:miter;stroke-opacity:1" />
    <path style="fill:#87cdde;stroke:none;stroke-width:0.26458332px;stroke-linecap:butt;stroke-linejoin:miter;stroke-opacity:1" d="m 89.890917,165.25963 c 0,0 3.262133,1.59786 9.095851,-1.06759 0,0 1.768802,1.61919 4.405502,2.05865 0,0 5.71286,1.64794 8.89888,5.2734 0,0 4.06491,7.47066 1.64794,16.25967 l -31.79394,5.87389 -5.916529,0.0719 c 0,0 -0.302006,-8.6924 0.796621,-15.06443 0,0 -0.109863,-5.49313 9.008735,-11.09612 0,0 3.410509,-0.91959 3.85694,-2.30941 z" id="path5981" />
    <path id="path5983" d="m 128.96464,164.96071 c 0,0 3.26213,1.59786 9.09585,-1.06759 0,0 1.7688,1.61919 4.4055,2.05865 0,0 5.05368,1.31835 8.2397,4.94381 0,0 6.04245,7.91012 1.64794,19.00624 l -26.1748,3.78757 -10.95877,-0.2208 c 0,0 -0.21972,-8.73032 0.8789,-15.10235 0,0 0.65918,-4.83395 9.00874,-11.09612 0,0 3.41051,-0.91959 3.85694,-2.30941 z" style="fill:#88aa00;stroke:none;stroke-width:0.26458332px;stroke-linecap:butt;stroke-linejoin:miter;stroke-opacity:1" />
  </g>
  <g transform="translate(-28.348211,-79.720383)" style="display:inline" id="layer10">
    <path id="path5989" d="m 39.192813,193.80269 c 0,0 -3.107768,-11.46013 0,-18.04359 3.107769,-6.58349 18.424628,-6.33965 18.424628,-6.33965 0,0 15.982813,-2.68215 16.42678,10.24096 0.443966,12.92312 -0.665951,14.14228 -0.665951,14.14228 z" style="fill:url(#radialGradient5997);fill-opacity:1;stroke:none;stroke-width:0.28746274px;stroke-linecap:butt;stroke-linejoin:miter;stroke-opacity:1" />
    <path style="fill:url(#radialGradient6003);fill-opacity:1;stroke:none;stroke-width:0.28746274px;stroke-linecap:butt;stroke-linejoin:miter;stroke-opacity:1" d="m 78.893256,193.76937 c 0,0 -3.107768,-11.46013 0,-18.04359 3.107769,-6.58349 18.424628,-6.33965 18.424628,-6.33965 0,0 15.982806,-2.68215 16.426776,10.24096 0.44397,12.92312 -0.66595,14.14228 -0.66595,14.14228 z" id="path6001" />
    <path id="path6005" d="m 117.65163,193.55524 c 0,0 -3.10777,-11.46013 0,-18.04359 3.10777,-6.58349 18.42463,-6.33965 18.42463,-6.33965 0,0 15.9828,-2.68215 16.42677,10.24096 0.44397,12.92312 -0.66595,14.14228 -0.66595,14.14228 z" style="fill:url(#radialGradient6007);fill-opacity:1;stroke:none;stroke-width:0.28746274px;stroke-linecap:butt;stroke-linejoin:miter;stroke-opacity:1" />
  </g>
  <g transform="translate(-28.348211,-79.720383)" style="display:inline" id="layer5">
    <path id="path5933" d="m 85.192385,103.36956 c 0,0 -2.596756,-1.37659 -3.285054,-0.18771 0,0 -0.40672,0.46929 -0.469292,3.72306 0,0 -0.375435,-2.15875 -0.876014,-2.06489 -0.50058,0.0939 -0.469294,1.1263 -0.03129,3.15991 0,0 0.28158,0.37543 0.469297,0.18771 0,0 0.125145,0.9073 0.03129,2.15875 0,0 0.406717,2.75319 4.19235,3.87949 0,0 0.469293,0.65701 3.441485,-2.56547 0,0 0.40672,-0.34414 0.563152,-2.28389 0,0 0.375434,0.34415 0.688296,-0.25029 0,0 0.844729,-1.06373 0.563153,-3.22248 0,0 -0.625725,-0.50058 -0.844729,2.06489 0,0 -0.312862,-0.59444 -0.03129,-1.97103 0,0 0.375439,-2.56547 0.156435,-2.97219 0,0 -0.375434,-0.0313 -0.563152,-0.28158 0,0 -0.406721,-0.28158 -1.720742,0.43801 0,0 -1.282737,0.876 -2.283895,0.18771 z" style="fill:#ffc497;fill-opacity:0.99497483;stroke:none;stroke-width:0.26458332px;stroke-linecap:butt;stroke-linejoin:miter;stroke-opacity:1" />
    <path id="path5937" d="m 87.225988,120.51441 c 0,0 -2.377752,-0.15643 -4.411355,0.18772 0,0 -1.095018,-0.12514 -1.001159,2.44033 0,0 -0.312863,2.44032 2.221322,3.97335 0,0 1.470452,-0.78216 1.8146,-2.56547 0,0 -0.281576,0.68829 -0.03129,0.93858 0.25029,0.25029 1.65817,-1.40788 1.40788,-2.40903 -0.250289,-1.00116 -0.625724,-1.22017 -0.625724,-1.22017 0,0 1.126304,0.21901 1.282735,-0.438 0.156431,-0.65702 -0.657013,-0.90731 -0.657013,-0.90731 z" style="fill:#ffc497;fill-opacity:0.99497483;stroke:none;stroke-width:0.26458332px;stroke-linecap:butt;stroke-linejoin:miter;stroke-opacity:1" />
    <path id="path5941" d="m 100.58521,130.80758 c 0,0 1.00115,-0.87601 2.81576,0.6883 0,0 1.75203,1.03244 1.47045,-0.0626 0,0 -1.09502,-0.93856 0.50058,-0.31284 0,0 2.37775,0.93859 3.53534,0.96988 0,0 1.09502,0.0313 0.18772,-1.43917 0,0 -4.72422,-2.00232 -7.88413,-3.03476 0,0 -0.71958,-0.4693 -1.407878,-0.15643 z" style="fill:#ffc497;fill-opacity:0.99497483;stroke:none;stroke-width:0.26458332px;stroke-linecap:butt;stroke-linejoin:miter;stroke-opacity:1" />
    <path id="path5943" d="m 50.988007,164.06393 c 0,0 4.697389,1.79355 9.095851,-1.06759 0,0 -0.427035,-1.36651 0.683256,-4.01413 0,0 0.128111,-0.29892 0.0427,-1.06759 0,0 2.348698,-1.58003 1.195703,-4.22765 0,0 0.85407,-5.63686 -4.099539,-6.87526 0,0 -2.30599,-0.59785 -5.20983,0.21351 0,0 -4.825498,1.32381 -4.056834,6.66175 0,0 -0.384332,-0.34162 -0.811367,0.51245 0,0 0.469739,4.48387 1.409216,3.45898 0,0 1.152995,3.71521 1.878955,4.69739 z" style="fill:#ffc497;fill-opacity:0.99497483;stroke:none;stroke-width:0.26458332px;stroke-linecap:butt;stroke-linejoin:miter;stroke-opacity:1" />
    <path style="fill:#ffc497;fill-opacity:0.99497483;stroke:none;stroke-width:0.26458332px;stroke-linecap:butt;stroke-linejoin:miter;stroke-opacity:1" d="m 89.890917,165.25963 c 0,0 4.697389,1.79355 9.095851,-1.06759 0,0 -0.427035,-1.36651 0.683256,-4.01413 0,0 0.128111,-0.29892 0.0427,-1.06759 0,0 2.348696,-1.58003 1.195706,-4.22765 0,0 0.85407,-5.63686 -4.099542,-6.87526 0,0 -2.30599,-0.59785 -5.20983,0.21351 0,0 -4.825498,1.32381 -4.056834,6.66175 0,0 -0.384332,-0.34162 -0.811367,0.51245 0,0 0.469739,4.48387 1.409216,3.45898 0,0 1.152995,3.71521 1.878955,4.69739 z" id="path5945" />
    <path id="path5947" d="m 128.96464,164.96071 c 0,0 4.69738,1.79355 9.09585,-1.06759 0,0 -0.42704,-1.36651 0.68325,-4.01413 0,0 0.12811,-0.29892 0.0427,-1.06759 0,0 2.3487,-1.58003 1.19571,-4.22765 0,0 0.85407,-5.63686 -4.09954,-6.87526 0,0 -2.30599,-0.59785 -5.20983,0.21351 0,0 -4.8255,1.32381 -4.05684,6.66175 0,0 -0.38433,-0.34162 -0.81136,0.51245 0,0 0.46973,4.48387 1.40921,3.45898 0,0 1.153,3.71521 1.87896,4.69739 z" style="fill:#ffc497;fill-opacity:0.99497483;stroke:none;stroke-width:0.26458332px;stroke-linecap:butt;stroke-linejoin:miter;stroke-opacity:1" />
  </g>
  <g transform="translate(-28.348211,-79.720383)" style="display:inline" id="layer6">
    <path id="path5950" d="m 47.131067,166.37334 c -0.428269,1.28481 6.003182,1.93565 8.987431,1.97544 l 7.596236,-1.14126 c 0,0 -4.617997,-9.2929 -1.495082,-13.52055 0,0 0.847472,-5.85962 -4.086486,-6.81458 0,0 -2.665929,-1.11412 -6.565347,0.59685 0,0 -4.146041,1.65237 -2.928505,6.21773 0,0 2.476804,8.66882 -1.508247,12.68637 z" style="fill:#241c22;stroke:none;stroke-width:0.26458332px;stroke-linecap:butt;stroke-linejoin:miter;stroke-opacity:1" />
    <path style="fill:#552200;stroke:none;stroke-width:0.26458332px;stroke-linecap:butt;stroke-linejoin:miter;stroke-opacity:1" d="m 90.337348,163.86981 c 0,0 1.366869,2.22314 4.351118,2.26293 0,0 2.98425,-0.7958 3.54131,-3.30256 0,0 2.770954,-6.50458 2.678654,-7.94751 0,0 1.06161,-5.85962 -3.872354,-6.81458 0,0 -2.665929,-1.11412 -6.565347,0.59685 0,0 -4.146041,1.65237 -2.928505,6.21773 0,0 0.831404,5.80904 2.795124,8.98714 z" id="path5952" />
    <path id="path5954" d="m 129.41106,163.57089 c 0,0 1.36687,2.22314 4.35112,2.26293 0,0 2.98425,-0.7958 3.54131,-3.30256 0,0 2.77096,-6.50458 2.67866,-7.94751 0,0 1.06161,-5.85962 -3.87236,-6.81458 0,0 -2.66593,-1.11412 -6.56535,0.59685 0,0 -4.14604,1.65237 -2.9285,6.21773 0,0 0.8314,5.80904 2.79512,8.98714 z" style="fill:#000000;stroke:#000000;stroke-width:0.26458332px;stroke-linecap:butt;stroke-linejoin:miter;stroke-opacity:1" />
    <path id="path5956" d="m 81.438039,106.90491 c 0,0 0.168515,-3.37759 0.625693,-3.77762 0.457179,-0.40004 1.780555,-0.38632 2.171602,-0.0572 0.957051,0.75662 2.069424,0.91179 3.526683,0.34032 1.457259,-0.57148 1.435005,-0.6666 1.873751,-0.16889 0.114295,0.82864 0.114295,0.42861 -0.171442,3.05739 0,0 -0.08572,1.08579 0.142872,1.62869 0,0 0.04392,-1.13814 0.87256,-2.02392 0,0 0.698992,-1.91925 0.213239,-4.29087 0,0 0.05715,-0.45718 -0.857212,-0.60005 0,0 -0.857211,-2.771648 -2.943093,-3.257401 0,0 -2.514488,-0.257163 -4.171764,0.971507 0,0 -2.00016,1.114375 -2.00016,3.285974 0,0 -0.428606,1.54298 -0.257164,2.91452 0,0 0.688696,0.0345 0.974435,1.97748 z" style="fill:#502d16;stroke:none;stroke-width:0.26458332px;stroke-linecap:butt;stroke-linejoin:miter;stroke-opacity:1" />
    <rect y="118.45921" x="85.223671" height="2.051569" width="0.98385853" id="rect6679" style="opacity:0.68699999;fill:#000000;fill-opacity:1;fill-rule:evenodd;stroke:none;stroke-width:1.12844789;stroke-linejoin:bevel;stroke-miterlimit:4;stroke-dasharray:none;stroke-opacity:1;paint-order:fill markers stroke" />
  </g>
</svg>
